<svg version="1.1" xmlns="http://www.w3.org/2000/svg" xmlns:xlink="http://www.w3.org/1999/xlink" width="96" height="96" viewBox="0,0,256,256"><g fill="#808f85" fill-rule="nonzero" stroke="none" stroke-width="1" stroke-linecap="butt" stroke-linejoin="miter" stroke-miterlimit="10" stroke-dasharray="" stroke-dashoffset="0" font-family="none" font-weight="none" font-size="none" text-anchor="none" style="mix-blend-mode: normal"><g transform="translate(0,-4) scale(2.66667,2.66667)"><path d="M24,78c0,4.968 4.029,9 9,9h30c4.968,0 9,-4.032 9,-9l6,-48h-60zM57,39h6v39h-6zM45,39h6v39h-6zM33,39h6v39h-6zM76.5,18h-19.5c0,0 -1.344,-6 -3,-6h-12c-1.659,0 -3,6 -3,6h-19.5c-2.487,0 -4.5,2.013 -4.5,4.5c0,2.487 0,4.5 0,4.5h66c0,0 0,-2.013 0,-4.5c0,-2.487 -2.016,-4.5 -4.5,-4.5z"></path></g></g></svg>